<mxfile host="app.diagrams.net" modified="2023-05-07T14:08:54.199Z" agent="Mozilla/5.0 (Windows NT 10.0; Win64; x64) AppleWebKit/537.36 (KHTML, like Gecko) Chrome/113.0.0.0 Safari/537.36" etag="5sSz3nzI2FM0ugkzNI3n" version="21.2.9" type="device">
  <diagram name="Page-1" id="13e1069c-82ec-6db2-03f1-153e76fe0fe0">
    <mxGraphModel dx="1434" dy="707" grid="1" gridSize="10" guides="1" tooltips="1" connect="1" arrows="1" fold="1" page="1" pageScale="1" pageWidth="1100" pageHeight="850" background="none" math="0" shadow="0">
      <root>
        <mxCell id="0" />
        <mxCell id="1" parent="0" />
        <mxCell id="7baba1c4bc27f4b0-2" value="시스템" style="shape=umlLifeline;perimeter=lifelinePerimeter;whiteSpace=wrap;html=1;container=1;collapsible=0;recursiveResize=0;outlineConnect=0;rounded=1;shadow=0;comic=0;labelBackgroundColor=none;strokeWidth=1;fontFamily=Verdana;fontSize=12;align=center;" parent="1" vertex="1">
          <mxGeometry x="490" y="109" width="100" height="891" as="geometry" />
        </mxCell>
        <mxCell id="7baba1c4bc27f4b0-4" value="DB" style="shape=umlLifeline;perimeter=lifelinePerimeter;whiteSpace=wrap;html=1;container=1;collapsible=0;recursiveResize=0;outlineConnect=0;rounded=1;shadow=0;comic=0;labelBackgroundColor=none;strokeWidth=1;fontFamily=Verdana;fontSize=12;align=center;" parent="1" vertex="1">
          <mxGeometry x="895" y="109" width="100" height="891" as="geometry" />
        </mxCell>
        <mxCell id="7baba1c4bc27f4b0-8" value="유저" style="shape=umlLifeline;perimeter=lifelinePerimeter;whiteSpace=wrap;html=1;container=1;collapsible=0;recursiveResize=0;outlineConnect=0;rounded=1;shadow=0;comic=0;labelBackgroundColor=none;strokeWidth=1;fontFamily=Verdana;fontSize=12;align=center;" parent="1" vertex="1">
          <mxGeometry x="80" y="109" width="100" height="891" as="geometry" />
        </mxCell>
        <mxCell id="7baba1c4bc27f4b0-11" value="1. (로그인된 사용자) 북마크 목록 검색 ([GET] /api/v1/bookmarks)" style="html=1;verticalAlign=bottom;endArrow=block;labelBackgroundColor=none;fontFamily=Helvetica;fontSize=12;edgeStyle=elbowEdgeStyle;elbow=vertical;align=left;fontStyle=1" parent="1" target="7baba1c4bc27f4b0-2" edge="1">
          <mxGeometry x="-1" relative="1" as="geometry">
            <mxPoint x="129.5" y="223" as="sourcePoint" />
            <mxPoint x="430" y="223" as="targetPoint" />
            <mxPoint as="offset" />
          </mxGeometry>
        </mxCell>
        <mxCell id="d7kwrDIypniRsh-_axAG-8" value="2. 사용자 인증 정보 (Authentication) 을 통한 북마크 목록 조회" style="html=1;verticalAlign=bottom;endArrow=block;labelBackgroundColor=none;fontFamily=Helvetica;fontSize=12;edgeStyle=elbowEdgeStyle;elbow=vertical;align=left;fontStyle=1" parent="1" source="7baba1c4bc27f4b0-2" edge="1">
          <mxGeometry x="-1" relative="1" as="geometry">
            <mxPoint x="430" y="246.51999999999998" as="sourcePoint" />
            <mxPoint x="944.5" y="247" as="targetPoint" />
            <mxPoint as="offset" />
          </mxGeometry>
        </mxCell>
        <mxCell id="d7kwrDIypniRsh-_axAG-12" value="3. 북마크 목록 정보 전달" style="html=1;verticalAlign=bottom;endArrow=block;labelBackgroundColor=none;fontFamily=Helvetica;fontSize=12;edgeStyle=elbowEdgeStyle;elbow=vertical;align=right;dashed=1;fontStyle=1" parent="1" edge="1">
          <mxGeometry x="-0.9967" relative="1" as="geometry">
            <mxPoint x="944.5" y="279" as="sourcePoint" />
            <mxPoint x="540" y="280" as="targetPoint" />
            <mxPoint as="offset" />
          </mxGeometry>
        </mxCell>
        <mxCell id="d7kwrDIypniRsh-_axAG-28" value="유저" style="rounded=1;whiteSpace=wrap;html=1;fontSize=12;" parent="1" vertex="1">
          <mxGeometry x="80" y="1000" width="100" height="40" as="geometry" />
        </mxCell>
        <mxCell id="d7kwrDIypniRsh-_axAG-29" value="시스템" style="rounded=1;whiteSpace=wrap;html=1;fontSize=12;" parent="1" vertex="1">
          <mxGeometry x="490" y="1000" width="100" height="40" as="geometry" />
        </mxCell>
        <mxCell id="d7kwrDIypniRsh-_axAG-31" value="DB" style="rounded=1;whiteSpace=wrap;html=1;fontSize=12;" parent="1" vertex="1">
          <mxGeometry x="895" y="1000" width="100" height="40" as="geometry" />
        </mxCell>
        <mxCell id="d7kwrDIypniRsh-_axAG-33" value="&lt;span style=&quot;font-size: 25px;&quot;&gt;&lt;b&gt;북마크 조회 / 생성 / 삭제 API&lt;/b&gt;&lt;/span&gt;" style="text;html=1;strokeColor=none;fillColor=none;align=center;verticalAlign=middle;whiteSpace=wrap;rounded=0;fontSize=12;" parent="1" vertex="1">
          <mxGeometry x="348" y="40" width="405" height="30" as="geometry" />
        </mxCell>
        <mxCell id="MBMuwZcIth6A8b6VbHb0-1" value="북마크 목록 검색 (api/v1/bookmarks)" style="shape=umlFrame;whiteSpace=wrap;html=1;pointerEvents=0;width=230;height=20;fillColor=#d5e8d4;strokeColor=#82b366;" parent="1" vertex="1">
          <mxGeometry x="80" y="170" width="920" height="160" as="geometry" />
        </mxCell>
        <mxCell id="MBMuwZcIth6A8b6VbHb0-2" value="2-2. 로그인된 사용자가 아닐 경우 예외 처리" style="html=1;verticalAlign=bottom;endArrow=block;labelBackgroundColor=none;fontFamily=Helvetica;fontSize=12;edgeStyle=elbowEdgeStyle;elbow=vertical;align=right;dashed=1;fontStyle=1;fontColor=#ff0000;strokeColor=#ff0000;" parent="1" source="7baba1c4bc27f4b0-2" edge="1">
          <mxGeometry x="-0.9967" relative="1" as="geometry">
            <mxPoint x="534.5" y="260" as="sourcePoint" />
            <mxPoint x="130" y="261" as="targetPoint" />
            <mxPoint as="offset" />
          </mxGeometry>
        </mxCell>
        <mxCell id="MBMuwZcIth6A8b6VbHb0-3" value="4. 북마크 목록 제공" style="html=1;verticalAlign=bottom;endArrow=block;labelBackgroundColor=none;fontFamily=Helvetica;fontSize=12;edgeStyle=elbowEdgeStyle;elbow=vertical;align=right;dashed=1;fontStyle=1;fontColor=#000000;strokeColor=#000000;" parent="1" edge="1">
          <mxGeometry x="-0.9967" relative="1" as="geometry">
            <mxPoint x="540" y="300" as="sourcePoint" />
            <mxPoint x="130" y="300" as="targetPoint" />
            <mxPoint as="offset" />
          </mxGeometry>
        </mxCell>
        <mxCell id="MBMuwZcIth6A8b6VbHb0-10" value="5. (로그인된 사용자) 북마크 추가 ([POST] /api/v1/bookmarks)" style="html=1;verticalAlign=bottom;endArrow=block;labelBackgroundColor=none;fontFamily=Helvetica;fontSize=12;edgeStyle=elbowEdgeStyle;elbow=vertical;align=left;fontStyle=1" parent="1" edge="1">
          <mxGeometry x="-1" relative="1" as="geometry">
            <mxPoint x="129.5" y="403" as="sourcePoint" />
            <mxPoint x="540" y="403" as="targetPoint" />
            <mxPoint as="offset" />
          </mxGeometry>
        </mxCell>
        <mxCell id="MBMuwZcIth6A8b6VbHb0-11" value="6. 북마크 저장하려는 장소의 place_id로 장소 검색 및 북마크 저장 요청" style="html=1;verticalAlign=bottom;endArrow=block;labelBackgroundColor=none;fontFamily=Helvetica;fontSize=12;edgeStyle=elbowEdgeStyle;elbow=vertical;align=left;fontStyle=1" parent="1" edge="1">
          <mxGeometry x="-0.9984" relative="1" as="geometry">
            <mxPoint x="540" y="449" as="sourcePoint" />
            <mxPoint x="944.5" y="449" as="targetPoint" />
            <mxPoint as="offset" />
          </mxGeometry>
        </mxCell>
        <mxCell id="MBMuwZcIth6A8b6VbHb0-12" value="7. 플랜 저장 완료 후 결과 전달" style="html=1;verticalAlign=bottom;endArrow=block;labelBackgroundColor=none;fontFamily=Helvetica;fontSize=12;edgeStyle=elbowEdgeStyle;elbow=vertical;align=right;dashed=1;fontStyle=1" parent="1" edge="1">
          <mxGeometry x="-0.9967" relative="1" as="geometry">
            <mxPoint x="944.5" y="491" as="sourcePoint" />
            <mxPoint x="540" y="492" as="targetPoint" />
            <mxPoint as="offset" />
          </mxGeometry>
        </mxCell>
        <mxCell id="MBMuwZcIth6A8b6VbHb0-13" value="북마크 추가 (api/v1/bookmarks)" style="shape=umlFrame;whiteSpace=wrap;html=1;pointerEvents=0;width=200;height=21;fillColor=#fff2cc;strokeColor=#d6b656;" parent="1" vertex="1">
          <mxGeometry x="80" y="350" width="920" height="180" as="geometry" />
        </mxCell>
        <mxCell id="MBMuwZcIth6A8b6VbHb0-14" value="5-2. 로그인된 사용자가 아닐 예외 처리" style="html=1;verticalAlign=bottom;endArrow=block;labelBackgroundColor=none;fontFamily=Helvetica;fontSize=12;edgeStyle=elbowEdgeStyle;elbow=vertical;align=right;dashed=1;fontStyle=1;fontColor=#ff0000;strokeColor=#ff0000;" parent="1" edge="1">
          <mxGeometry x="-0.9967" relative="1" as="geometry">
            <mxPoint x="540" y="429" as="sourcePoint" />
            <mxPoint x="130" y="429" as="targetPoint" />
            <mxPoint as="offset" />
          </mxGeometry>
        </mxCell>
        <mxCell id="MBMuwZcIth6A8b6VbHb0-15" value="8. 플랜 저장 결과 제공" style="html=1;verticalAlign=bottom;endArrow=block;labelBackgroundColor=none;fontFamily=Helvetica;fontSize=12;edgeStyle=elbowEdgeStyle;elbow=vertical;align=right;dashed=1;fontStyle=1;fontColor=#000000;strokeColor=#000000;" parent="1" edge="1">
          <mxGeometry x="-0.9959" relative="1" as="geometry">
            <mxPoint x="540" y="506" as="sourcePoint" />
            <mxPoint x="130" y="506" as="targetPoint" />
            <mxPoint as="offset" />
          </mxGeometry>
        </mxCell>
        <mxCell id="MBMuwZcIth6A8b6VbHb0-17" value="6-2. 장소가 존재하지 않을 경우 예외 처리" style="html=1;verticalAlign=bottom;endArrow=block;labelBackgroundColor=none;fontFamily=Helvetica;fontSize=12;edgeStyle=elbowEdgeStyle;elbow=vertical;align=right;dashed=1;fontStyle=1;fontColor=#ff0000;strokeColor=#ff0000;" parent="1" edge="1">
          <mxGeometry x="-0.9959" relative="1" as="geometry">
            <mxPoint x="540" y="467.75" as="sourcePoint" />
            <mxPoint x="130" y="467.75" as="targetPoint" />
            <mxPoint as="offset" />
          </mxGeometry>
        </mxCell>
        <mxCell id="MBMuwZcIth6A8b6VbHb0-43" value="9. (로그인된 사용자) 북마크 삭제 ([DELETE] /api/v1/bookmarks/{id})" style="html=1;verticalAlign=bottom;endArrow=block;labelBackgroundColor=none;fontFamily=Helvetica;fontSize=12;edgeStyle=elbowEdgeStyle;elbow=vertical;align=left;fontStyle=1" parent="1" edge="1">
          <mxGeometry x="-1" relative="1" as="geometry">
            <mxPoint x="129.5" y="603" as="sourcePoint" />
            <mxPoint x="540" y="603" as="targetPoint" />
            <mxPoint as="offset" />
          </mxGeometry>
        </mxCell>
        <mxCell id="MBMuwZcIth6A8b6VbHb0-44" value="10. id를 통한 북마크 검색 후 북마크 삭제 요청" style="html=1;verticalAlign=bottom;endArrow=block;labelBackgroundColor=none;fontFamily=Helvetica;fontSize=12;edgeStyle=elbowEdgeStyle;elbow=vertical;align=left;fontStyle=1" parent="1" edge="1">
          <mxGeometry x="-1" relative="1" as="geometry">
            <mxPoint x="540" y="647" as="sourcePoint" />
            <mxPoint x="944.5" y="647" as="targetPoint" />
            <mxPoint as="offset" />
          </mxGeometry>
        </mxCell>
        <mxCell id="MBMuwZcIth6A8b6VbHb0-45" value="11. 북마크 삭제 완료 후 결과 전달" style="html=1;verticalAlign=bottom;endArrow=block;labelBackgroundColor=none;fontFamily=Helvetica;fontSize=12;edgeStyle=elbowEdgeStyle;elbow=vertical;align=right;dashed=1;fontStyle=1" parent="1" edge="1">
          <mxGeometry x="-0.9967" relative="1" as="geometry">
            <mxPoint x="944.5" y="685" as="sourcePoint" />
            <mxPoint x="540" y="686" as="targetPoint" />
            <mxPoint as="offset" />
          </mxGeometry>
        </mxCell>
        <mxCell id="MBMuwZcIth6A8b6VbHb0-46" value="북마크 삭제 (api/v1/bookmarks/{id})" style="shape=umlFrame;whiteSpace=wrap;html=1;pointerEvents=0;width=200;height=21;fillColor=#f8cecc;strokeColor=#b85450;" parent="1" vertex="1">
          <mxGeometry x="80" y="550" width="920" height="180" as="geometry" />
        </mxCell>
        <mxCell id="MBMuwZcIth6A8b6VbHb0-47" value="9-2. 로그인된 사용자가 아닐 예외 처리" style="html=1;verticalAlign=bottom;endArrow=block;labelBackgroundColor=none;fontFamily=Helvetica;fontSize=12;edgeStyle=elbowEdgeStyle;elbow=vertical;align=right;dashed=1;fontStyle=1;fontColor=#ff0000;strokeColor=#ff0000;" parent="1" edge="1">
          <mxGeometry x="-0.9967" relative="1" as="geometry">
            <mxPoint x="540" y="629" as="sourcePoint" />
            <mxPoint x="130" y="629" as="targetPoint" />
            <mxPoint as="offset" />
          </mxGeometry>
        </mxCell>
        <mxCell id="MBMuwZcIth6A8b6VbHb0-48" value="12. 북마크 삭제 결과 제공" style="html=1;verticalAlign=bottom;endArrow=block;labelBackgroundColor=none;fontFamily=Helvetica;fontSize=12;edgeStyle=elbowEdgeStyle;elbow=vertical;align=right;dashed=1;fontStyle=1;fontColor=#000000;strokeColor=#000000;" parent="1" edge="1">
          <mxGeometry x="-0.9959" relative="1" as="geometry">
            <mxPoint x="540" y="706" as="sourcePoint" />
            <mxPoint x="130" y="706" as="targetPoint" />
            <mxPoint as="offset" />
          </mxGeometry>
        </mxCell>
        <mxCell id="MBMuwZcIth6A8b6VbHb0-50" value="10-2. 존재하지 않는 북마크일 경우 예외 처리" style="html=1;verticalAlign=bottom;endArrow=block;labelBackgroundColor=none;fontFamily=Helvetica;fontSize=12;edgeStyle=elbowEdgeStyle;elbow=vertical;align=right;dashed=1;fontStyle=1;fontColor=#ff0000;strokeColor=#ff0000;" parent="1" edge="1">
          <mxGeometry x="-0.9967" relative="1" as="geometry">
            <mxPoint x="540" y="661" as="sourcePoint" />
            <mxPoint x="130" y="661" as="targetPoint" />
            <mxPoint as="offset" />
          </mxGeometry>
        </mxCell>
        <mxCell id="wuix4Ya_KmkEpdHoyXlB-1" value="13. (로그인된 사용자) 북마크 삭제&lt;br&gt;([DELETE] /api/v1/bookmarks/place/{place_id})" style="html=1;verticalAlign=bottom;endArrow=block;labelBackgroundColor=none;fontFamily=Helvetica;fontSize=12;edgeStyle=elbowEdgeStyle;elbow=vertical;align=left;fontStyle=1" edge="1" parent="1">
          <mxGeometry x="-1" relative="1" as="geometry">
            <mxPoint x="129.5" y="823" as="sourcePoint" />
            <mxPoint x="540" y="823" as="targetPoint" />
            <mxPoint as="offset" />
          </mxGeometry>
        </mxCell>
        <mxCell id="wuix4Ya_KmkEpdHoyXlB-2" value="14. 사용자 인증 정보 (Authentication) + 장소 ID를 통한&lt;br&gt;북마크 검색 후 북마크 삭제 요청" style="html=1;verticalAlign=bottom;endArrow=block;labelBackgroundColor=none;fontFamily=Helvetica;fontSize=12;edgeStyle=elbowEdgeStyle;elbow=vertical;align=left;fontStyle=1" edge="1" parent="1">
          <mxGeometry x="-0.9992" relative="1" as="geometry">
            <mxPoint x="540" y="872" as="sourcePoint" />
            <mxPoint x="944.5" y="872" as="targetPoint" />
            <mxPoint as="offset" />
          </mxGeometry>
        </mxCell>
        <mxCell id="wuix4Ya_KmkEpdHoyXlB-3" value="15. 북마크 삭제 완료 후 결과 전달" style="html=1;verticalAlign=bottom;endArrow=block;labelBackgroundColor=none;fontFamily=Helvetica;fontSize=12;edgeStyle=elbowEdgeStyle;elbow=vertical;align=right;dashed=1;fontStyle=1" edge="1" parent="1">
          <mxGeometry x="-0.9967" relative="1" as="geometry">
            <mxPoint x="944.5" y="915" as="sourcePoint" />
            <mxPoint x="540" y="916" as="targetPoint" />
            <mxPoint as="offset" />
          </mxGeometry>
        </mxCell>
        <mxCell id="wuix4Ya_KmkEpdHoyXlB-4" value="북마크 삭제 (api/v1/bookmarks/place/{place_id})" style="shape=umlFrame;whiteSpace=wrap;html=1;pointerEvents=0;width=290;height=20;fillColor=#f8cecc;strokeColor=#b85450;" vertex="1" parent="1">
          <mxGeometry x="80" y="750" width="920" height="210" as="geometry" />
        </mxCell>
        <mxCell id="wuix4Ya_KmkEpdHoyXlB-5" value="13-2. 로그인된 사용자가 아닐 예외 처리" style="html=1;verticalAlign=bottom;endArrow=block;labelBackgroundColor=none;fontFamily=Helvetica;fontSize=12;edgeStyle=elbowEdgeStyle;elbow=vertical;align=right;dashed=1;fontStyle=1;fontColor=#ff0000;strokeColor=#ff0000;" edge="1" parent="1">
          <mxGeometry x="-0.9967" relative="1" as="geometry">
            <mxPoint x="540" y="849" as="sourcePoint" />
            <mxPoint x="130" y="849" as="targetPoint" />
            <mxPoint as="offset" />
          </mxGeometry>
        </mxCell>
        <mxCell id="wuix4Ya_KmkEpdHoyXlB-6" value="16. 북마크 삭제 결과 제공" style="html=1;verticalAlign=bottom;endArrow=block;labelBackgroundColor=none;fontFamily=Helvetica;fontSize=12;edgeStyle=elbowEdgeStyle;elbow=vertical;align=right;dashed=1;fontStyle=1;fontColor=#000000;strokeColor=#000000;" edge="1" parent="1">
          <mxGeometry x="-0.9959" relative="1" as="geometry">
            <mxPoint x="540" y="936" as="sourcePoint" />
            <mxPoint x="130" y="936" as="targetPoint" />
            <mxPoint as="offset" />
          </mxGeometry>
        </mxCell>
        <mxCell id="wuix4Ya_KmkEpdHoyXlB-7" value="14-2. 존재하지 않는 북마크일 경우 예외 처리" style="html=1;verticalAlign=bottom;endArrow=block;labelBackgroundColor=none;fontFamily=Helvetica;fontSize=12;edgeStyle=elbowEdgeStyle;elbow=vertical;align=right;dashed=1;fontStyle=1;fontColor=#ff0000;strokeColor=#ff0000;" edge="1" parent="1">
          <mxGeometry x="-0.9967" relative="1" as="geometry">
            <mxPoint x="540" y="890" as="sourcePoint" />
            <mxPoint x="130" y="890" as="targetPoint" />
            <mxPoint as="offset" />
          </mxGeometry>
        </mxCell>
      </root>
    </mxGraphModel>
  </diagram>
</mxfile>
